<svg width="200" height="150" viewBox="0 0 200 150" fill="none" xmlns="http://www.w3.org/2000/svg">
  <!-- Livro 1 - azul -->
  <rect x="30" y="30" width="40" height="100" rx="2" fill="#264389" />
  <rect x="32" y="35" width="36" height="90" rx="1" fill="#3A5BBF" />
  <rect x="38" y="45" width="24" height="4" rx="1" fill="white" opacity="0.7" />
  <rect x="38" y="55" width="24" height="4" rx="1" fill="white" opacity="0.7" />
  <rect x="38" y="65" width="24" height="4" rx="1" fill="white" opacity="0.7" />
  
  <!-- Livro 2 - vermelho -->
  <rect x="80" y="20" width="45" height="110" rx="2" fill="#A02C2C" />
  <rect x="82" y="25" width="41" height="100" rx="1" fill="#F1827F" />
  <rect x="88" y="35" width="29" height="4" rx="1" fill="white" opacity="0.7" />
  <rect x="88" y="45" width="29" height="4" rx="1" fill="white" opacity="0.7" />
  <rect x="88" y="55" width="29" height="4" rx="1" fill="white" opacity="0.7" />
  
  <!-- Livro 3 - verde -->
  <rect x="135" y="40" width="35" height="90" rx="2" fill="#1D5E40" />
  <rect x="137" y="45" width="31" height="80" rx="1" fill="#2A8C5F" />
  <rect x="143" y="55" width="19" height="4" rx="1" fill="white" opacity="0.7" />
  <rect x="143" y="65" width="19" height="4" rx="1" fill="white" opacity="0.7" />
  <rect x="143" y="75" width="19" height="4" rx="1" fill="white" opacity="0.7" />
</svg>